<!DOCTYPE svg PUBLIC "-//W3C//DTD SVG 1.1//EN" "http://www.w3.org/Graphics/SVG/1.1/DTD/svg11.dtd">
<!-- Uploaded to: SVG Repo, www.svgrepo.com, Transformed by: SVG Repo Mixer Tools -->
<svg viewBox="0 0 600 600" version="1.1" id="svg9724" sodipodi:docname="hide.svg" inkscape:version="1.2.2 (1:1.2.2+202212051550+b0a8486541)" width="800px" height="800px" xmlns:inkscape="http://www.inkscape.org/namespaces/inkscape" xmlns:sodipodi="http://sodipodi.sourceforge.net/DTD/sodipodi-0.dtd" xmlns="http://www.w3.org/2000/svg" xmlns:svg="http://www.w3.org/2000/svg" fill="#ffffff" stroke="#ffffff">
<g id="SVGRepo_bgCarrier" stroke-width="0"/>
<g id="SVGRepo_tracerCarrier" stroke-linecap="round" stroke-linejoin="round"/>
<g id="SVGRepo_iconCarrier"> <defs id="defs9728"/> <sodipodi:namedview id="namedview9726" pagecolor="#ffffff" bordercolor="#ffffff" borderopacity="1.0" inkscape:showpageshadow="2" inkscape:pageopacity="0.0" inkscape:pagecheckerboard="0" inkscape:deskcolor="#ffffff" showgrid="true" inkscape:zoom="0.84118632" inkscape:cx="0.59439863" inkscape:cy="251.43062" inkscape:window-width="1920" inkscape:window-height="1009" inkscape:window-x="0" inkscape:window-y="1080" inkscape:window-maximized="1" inkscape:current-layer="svg9724" showguides="true"> <inkscape:grid type="xygrid" id="grid9972" originx="0" originy="0"/> <sodipodi:guide position="300,360" orientation="1,0" id="guide1208" inkscape:locked="false"/> <sodipodi:guide position="30,300" orientation="0,-1" id="guide345" inkscape:locked="false"/> </sodipodi:namedview> <path id="path401" style="color:#ffffff;fill:#ffffff;stroke-linecap:round;-inkscape-stroke:none" d="M 304.97266 60.011719 C 301.64345 59.975172 298.30561 60.017867 294.96094 60.138672 C 187.93101 64.004416 94.223965 145.76059 6.6503906 276.92188 A 40 40 0 0 0 0.4921875 296.11328 A 40 40 0 0 0 0.12695312 299.21094 A 40 40 0 0 0 0.82226562 305.09961 A 40 40 0 0 0 2.3222656 312.62891 A 40 40 0 0 0 2.9257812 313.93945 A 40 40 0 0 0 6.734375 322.21094 C 35.448585 365.21698 64.840816 402.78301 95.126953 434.16211 L 152.01367 377.27539 C 131.15224 355.76877 109.85224 330.01133 88.212891 299.50781 C 163.93506 192.80386 235.70134 142.33057 297.84766 140.08594 C 321.03713 139.24837 345.5035 144.82962 371.17969 158.10938 L 429.63086 99.658203 C 389.28095 74.112324 347.77391 60.481577 304.97266 60.011719 z M 506.57617 164.13477 L 450 220.71094 C 470.20947 242.16957 491.00555 268.20117 512.4082 299.62891 C 432.36032 417.12964 360.51926 461.30947 297.92969 459.04883 C 276.74748 458.28376 254.42556 451.76693 231.23242 439.47852 L 172.28711 498.42383 C 211.38229 523.18429 252.12675 537.44604 295.04297 538.99609 C 402.07287 542.86185 501.15072 465.95461 593.82422 321.61133 A 40 40 0 0 0 599.95898 296.71289 A 40 40 0 0 0 599.73242 294.32031 A 40 40 0 0 0 599.60938 293.48633 A 40 40 0 0 0 593.74219 277.52344 C 565.30627 233.23316 536.26259 195.34152 506.57617 164.13477 z M 300 180 C 234.08138 180 180 234.08138 180 300 C 180 314.63297 182.79619 328.62076 187.66406 341.625 L 241.15625 288.13281 C 245.81666 264.29004 264.29004 245.81666 288.13281 241.15625 L 341.625 187.66406 C 328.62076 182.79619 314.63297 180 300 180 z M 412.33594 258.375 L 358.84375 311.86719 C 354.18334 335.70996 335.70996 354.18334 311.86719 358.84375 L 258.375 412.33594 C 271.37924 417.20381 285.36703 420 300 420 C 365.91862 420 420 365.91862 420 300 C 420 285.36703 417.20381 271.37924 412.33594 258.375 z "/> <path style="color:#ffffff;fill:#ffffff;stroke-linecap:round;-inkscape-stroke:none" d="M 570,0 A 30,30 0 0 0 548.78711,8.7871094 L 8.7871094,548.78711 a 30,30 0 0 0 0,42.42578 30,30 0 0 0 42.4257816,0 L 591.21289,51.212891 a 30,30 0 0 0 0,-42.4257816 A 30,30 0 0 0 570,0 Z" id="path345"/> </g>
</svg>